<?xml version="1.0" encoding="utf-8"?>
<!-- Generator: Adobe Illustrator 24.0.1, SVG Export Plug-In . SVG Version: 6.00 Build 0)  -->
<svg version="1.1" id="Layer_1" focusable="false" xmlns="http://www.w3.org/2000/svg" xmlns:xlink="http://www.w3.org/1999/xlink"
	 x="0px" y="0px" viewBox="0 0 256 256" style="enable-background:new 0 0 256 256;" xml:space="preserve">
<style type="text/css">
	.st0{fill:#5B7D87;}
	.st1{fill:#FFFFFF;}
</style>
<circle class="st0" cx="128" cy="128" r="127"/>
<path class="st0" d="M127.7,99.9c7.7,0,13.9-6.2,13.9-13.9s-6.2-13.9-13.9-13.9s-13.9,6.2-13.9,13.9S120,99.9,127.7,99.9z
	 M137.4,103.4h-1.8c-2.4,1.1-5.1,1.7-7.9,1.7s-5.5-0.6-7.9-1.7H118c-8,0-14.6,6.5-14.6,14.6v4.5c0,2.9,2.3,5.2,5.2,5.2h38.1
	c2.9,0,5.2-2.3,5.2-5.2V118C151.9,109.9,145.4,103.4,137.4,103.4z"/>
<path class="st1" d="M190.5,93.9c0.2-1,0.5-2,0.5-3.1V59.5c0-10.4-8.4-18.8-18.8-18.8H166c-2.5,0-4.8,0.5-7,1.4
	c-2.2-8-9.4-13.9-18-13.9h-6.2c-8.6,0-15.9,5.9-18,13.9c-2.2-0.9-4.5-1.4-7-1.4h-6.2c-8.6,0-15.9,5.9-18,13.9
	c-2.2-0.9-4.5-1.4-7-1.4h-6.2c-10.4,0-18.8,8.4-18.8,18.8v73c0,14.9,5.9,29.2,16.5,39.8l8.5,8.5v31.8c0,1.7,1.4,3.1,3.1,3.1h6.2
	c1.7,0,3.1-1.4,3.1-3.1v-37L78.8,176c-8.2-8.2-12.8-19.3-12.8-30.9v-17.9c2,0.7,4,1.2,6.2,1.2h6.2c4.8,0,9.2-1.9,12.5-4.9
	c3.3,3,7.7,4.9,12.5,4.9h6.2c5.1,0,9.8-2.1,13.2-5.4c0.1,0.1,3.6,5.7,12,9.2c-7.7,6.2-13.2,14-22.4,27.6c-1,1.4-0.6,3.4,0.9,4.3
	c0,0,0,0,0,0l5.2,3.5c1.4,1,3.4,0.6,4.3-0.9c0,0,0,0,0,0l2.5-3.7c12.5-18.7,20.1-27.5,37.5-28.3c1.7-0.1,3.1-1.4,3.1-3.1v-6.4
	c0-1.7-1.4-3.1-3.1-3.1H147c-10.2,0-18.5-8.3-18.5-18.5v-0.3c0-3.4,2.8-6.2,6.2-6.2H166c13.8,0,25,11.2,25,25v34.5
	c0,9.9-3.9,19.4-11,26.5l-14,14v28.1c0,1.7,1.4,3.1,3.1,3.1h6.2c1.7,0,3.1-1.4,3.1-3.1v-22.9l10.4-10.4c9.4-9.4,14.6-22.1,14.6-35.4
	V122C203.5,110.7,198.4,100.8,190.5,93.9z M84.8,109.5c0,3.5-2.8,6.2-6.2,6.2h-6.2c-3.5,0-6.2-2.8-6.2-6.2V72c0-3.5,2.8-6.2,6.2-6.2
	h6.2c3.5,0,6.2,2.8,6.2,6.2V109.5z M116,109.5c0,3.5-2.8,6.2-6.2,6.2h-6.2c-3.5,0-6.2-2.8-6.2-6.2v-50c0-3.5,2.8-6.2,6.2-6.2h6.2
	c3.5,0,6.2,2.8,6.2,6.2V109.5z M147.2,84.5h-12.5c-2.2,0-4.3,0.4-6.2,1.1V47c0-3.5,2.8-6.2,6.2-6.2h6.2c3.5,0,6.2,2.8,6.2,6.2V84.5z
	 M178.5,86.8c-3.9-1.4-8.1-2.3-12.5-2.3h-6.2v-25c0-3.5,2.8-6.2,6.2-6.2h6.2c3.5,0,6.2,2.8,6.2,6.2V86.8z"/>
</svg>
